<svg xmlns="http://www.w3.org/2000/svg" viewBox="0 0 24 24" width="64" height="64" color="#f24d0d" fill="none">
    <defs />
    <path fill="currentColor" d="M19.016,1.754 C19.625,1.767 20.098,2.03 20.424,2.312 C20.743,2.588 20.953,2.907 21.059,3.124 C21.066,3.138 21.072,3.153 21.078,3.167 C21.665,4.588 22.078,5.719 22.345,6.59 C22.606,7.439 22.75,8.107 22.75,8.571 C22.75,8.622 22.745,8.673 22.734,8.723 C22.626,9.245 22.344,9.954 21.717,10.608 L21.717,15.553 C21.717,16.921 21.717,18.024 21.6,18.891 C21.479,19.791 21.22,20.549 20.618,21.151 C20.017,21.753 19.259,22.012 18.359,22.133 C17.492,22.25 16.389,22.25 15.022,22.25 L8.912,22.25 C7.544,22.25 6.442,22.25 5.575,22.133 C4.675,22.012 3.917,21.753 3.315,21.151 C2.713,20.549 2.454,19.791 2.333,18.891 C2.217,18.024 2.217,16.921 2.217,15.553 L2.217,10.496 C2.217,10.487 2.217,10.479 2.217,10.47 C2.204,10.456 2.19,10.442 2.177,10.427 C1.891,10.123 1.543,9.705 1.383,9.309 C1.284,9.062 1.255,8.794 1.251,8.571 C1.246,8.337 1.266,8.096 1.298,7.871 C1.359,7.435 1.472,6.997 1.579,6.712 L2.257,4.747 L2.265,4.724 C2.349,4.474 2.492,4.047 2.666,3.629 C2.756,3.411 2.859,3.185 2.973,2.979 C3.081,2.782 3.221,2.561 3.397,2.386 C3.759,2.027 4.244,1.887 4.587,1.824 C4.951,1.758 5.293,1.754 5.469,1.754 L12.486,1.754 C13.379,1.766 14.808,1.763 16.119,1.757 L16.632,1.755 C17.723,1.751 18.668,1.747 19.016,1.754 Z M20.217,11.652 C19.913,11.791 19.575,11.915 19.198,12.018 C17.076,12.6 15.644,11.823 14.883,11.182 C14.715,11.304 14.531,11.424 14.334,11.537 C13.699,11.899 12.879,12.21 11.965,12.198 C10.725,12.181 9.751,11.699 9.135,11.228 C8.562,11.705 7.838,12.075 6.945,12.191 C5.953,12.321 5.08,12.169 4.406,11.939 C4.153,11.853 3.921,11.753 3.717,11.649 L3.717,15.498 C3.717,16.934 3.718,17.935 3.82,18.691 C3.919,19.425 4.099,19.814 4.376,20.091 C4.653,20.368 5.041,20.548 5.775,20.647 C6.53,20.749 7.531,20.75 8.967,20.75 L14.967,20.75 C16.402,20.75 17.403,20.749 18.159,20.647 C18.892,20.548 19.281,20.368 19.558,20.091 C19.834,19.814 20.015,19.425 20.114,18.691 C20.215,17.935 20.217,16.934 20.217,15.498 Z M11.986,10.698 C12.549,10.706 13.104,10.512 13.59,10.234 C14.07,9.96 14.434,9.632 14.609,9.434 C14.658,9.373 14.892,9.019 15.158,8.189 C15.285,7.795 15.707,7.577 16.101,7.704 C16.496,7.83 16.713,8.252 16.587,8.647 C16.368,9.33 16.142,9.81 15.953,10.121 C16.474,10.523 17.402,10.955 18.802,10.572 C20.621,10.073 21.115,9.024 21.247,8.497 C21.232,8.249 21.142,7.782 20.912,7.031 C20.664,6.225 20.273,5.149 19.703,3.766 C19.665,3.697 19.576,3.562 19.443,3.447 C19.306,3.328 19.155,3.257 18.985,3.254 C18.657,3.247 17.737,3.251 16.638,3.255 L16.636,3.255 L16.125,3.257 C14.821,3.262 13.38,3.267 12.47,3.254 L5.469,3.254 C5.313,3.254 5.082,3.259 4.858,3.3 C4.612,3.345 4.492,3.413 4.453,3.451 C4.429,3.475 4.37,3.55 4.287,3.701 C4.21,3.843 4.13,4.015 4.051,4.204 C3.898,4.573 3.769,4.958 3.684,5.21 L3.676,5.233 L2.993,7.212 C2.991,7.219 2.988,7.226 2.985,7.233 C2.923,7.398 2.832,7.731 2.783,8.08 C2.759,8.251 2.748,8.409 2.75,8.54 C2.752,8.604 2.756,8.656 2.763,8.694 C2.768,8.731 2.774,8.747 2.775,8.749 C2.821,8.863 2.994,9.106 3.27,9.4 C3.531,9.679 3.792,9.905 3.916,9.991 C3.947,10.012 3.976,10.036 4.003,10.062 C4.073,10.127 4.381,10.346 4.89,10.52 C5.383,10.688 6.022,10.799 6.751,10.704 C8.265,10.506 9.135,9.105 9.381,8.218 C9.492,7.819 9.905,7.585 10.304,7.695 C10.703,7.806 10.937,8.219 10.827,8.618 C10.712,9.031 10.486,9.569 10.134,10.102 C10.529,10.38 11.168,10.686 11.986,10.698 Z M8.406,16.494 C8.681,16.184 9.155,16.156 9.465,16.431 C9.985,16.893 10.885,17.242 11.967,17.242 C13.049,17.242 13.948,16.893 14.469,16.431 C14.779,16.156 15.253,16.184 15.528,16.494 C15.803,16.804 15.774,17.278 15.465,17.553 C14.617,18.306 13.338,18.742 11.967,18.742 C10.595,18.742 9.317,18.306 8.469,17.553 C8.159,17.278 8.131,16.804 8.406,16.494 Z" />
</svg>